<?xml version="1.0" encoding="UTF-8" standalone="no"?><!DOCTYPE svg PUBLIC "-//W3C//DTD SVG 1.1//EN" "http://www.w3.org/Graphics/SVG/1.1/DTD/svg11.dtd"><svg width="100%" height="100%" viewBox="0 0 545 534" version="1.1" xmlns="http://www.w3.org/2000/svg" xmlns:xlink="http://www.w3.org/1999/xlink" xml:space="preserve" xmlns:serif="http://www.serif.com/" style="fill-rule:evenodd;clip-rule:evenodd;stroke-linejoin:round;stroke-miterlimit:2;"><path d="M271.411,0c-150.083,0 -271.411,122.222 -271.411,273.428c0,120.866 77.739,223.178 185.583,259.389c13.484,2.722 18.423,-5.884 18.423,-13.123c-0,-6.338 -0.445,-28.066 -0.445,-50.705c-75.5,16.3 -91.222,-32.595 -91.222,-32.595c-12.133,-31.688 -30.111,-39.833 -30.111,-39.833c-24.711,-16.75 1.8,-16.75 1.8,-16.75c27.411,1.811 41.794,28.067 41.794,28.067c24.261,41.644 63.356,29.878 79.084,22.633c2.244,-17.655 9.438,-29.878 17.077,-36.667c-60.216,-6.338 -123.572,-29.877 -123.572,-134.905c0,-29.878 10.778,-54.322 27.856,-73.333c-2.695,-6.789 -12.134,-34.862 2.7,-72.434c-0,0 22.916,-7.244 74.589,28.067c22.122,-5.985 44.937,-9.03 67.855,-9.056c22.917,0 46.278,3.173 67.85,9.056c51.678,-35.311 74.595,-28.067 74.595,-28.067c14.833,37.572 5.388,65.645 2.694,72.434c17.528,19.011 27.861,43.455 27.861,73.333c0,105.028 -63.355,128.111 -124.022,134.905c9.889,8.6 18.422,24.895 18.422,50.7c0,36.667 -0.444,66.095 -0.444,75.145c-0,7.244 4.944,15.85 18.422,13.133c107.844,-36.222 185.583,-138.528 185.583,-259.394c0.445,-151.206 -121.328,-273.428 -270.961,-273.428Z" style="fill:#cfcfcf;"/></svg>