<?xml version="1.0" encoding="UTF-8" standalone="no"?><!DOCTYPE svg PUBLIC "-//W3C//DTD SVG 1.1//EN" "http://www.w3.org/Graphics/SVG/1.1/DTD/svg11.dtd"><svg width="100%" height="100%" viewBox="0 0 5556 5556" version="1.1" xmlns="http://www.w3.org/2000/svg" xmlns:xlink="http://www.w3.org/1999/xlink" xml:space="preserve" xmlns:serif="http://www.serif.com/" style="fill-rule:evenodd;clip-rule:evenodd;stroke-linejoin:round;stroke-miterlimit:2;"><path d="M1627.33,19.444c-295.555,13.945 -497.389,61.112 -673.833,130.445c-182.611,71.167 -337.389,166.667 -491.389,321.222c-154,154.556 -248.833,309.445 -319.5,492.333c-68.389,176.834 -114.722,378.834 -127.778,674.556c-13.055,295.722 -15.944,390.778 -14.5,1145.11c1.445,754.333 4.778,848.889 19.111,1145.22c14.112,295.5 61.112,497.278 130.445,673.778c71.278,182.611 166.667,337.333 321.278,491.389c154.611,154.056 309.389,248.667 492.722,319.444c176.667,68.278 378.722,114.834 674.389,127.778c295.666,12.945 390.833,15.945 1144.94,14.5c754.111,-1.444 849.056,-4.778 1145.33,-18.833c296.277,-14.056 497,-61.389 673.555,-130.389c182.611,-71.444 337.445,-166.667 491.389,-321.333c153.944,-154.667 248.722,-309.667 319.333,-492.667c68.445,-176.667 114.945,-378.722 127.778,-674.167c12.945,-296.5 16,-391.166 14.556,-1145.39c-1.445,-754.222 -4.834,-848.777 -18.889,-1145c-14.056,-296.222 -61.111,-497.388 -130.389,-674c-71.389,-182.611 -166.667,-337.222 -321.222,-491.388c-154.556,-154.167 -309.667,-248.889 -492.611,-319.334c-176.778,-68.389 -378.723,-115 -674.389,-127.778c-295.667,-12.777 -390.834,-16.055 -1145.22,-14.611c-754.388,1.445 -848.833,4.667 -1145.11,19.111m32.445,5021.56c-270.834,-11.778 -417.889,-56.778 -515.889,-94.444c-129.778,-50 -222.222,-110.445 -319.889,-207.167c-97.667,-96.722 -157.667,-189.5 -208.333,-319c-38.056,-98 -83.889,-244.889 -96.556,-515.722c-13.778,-292.723 -16.667,-380.611 -18.278,-1122.22c-1.611,-741.611 1.223,-829.388 14.056,-1122.22c11.555,-270.611 56.833,-417.833 94.444,-515.778c50,-129.944 110.223,-222.222 207.167,-319.833c96.944,-97.611 189.444,-157.722 319.056,-208.389c97.888,-38.222 244.777,-83.666 515.5,-96.555c292.944,-13.889 380.722,-16.667 1122.22,-18.278c741.5,-1.611 829.5,1.167 1122.56,14.055c270.611,11.778 417.889,56.612 515.723,94.445c129.833,50 222.222,110.055 319.833,207.167c97.611,97.111 157.778,189.277 208.444,319.166c38.278,97.611 83.723,244.445 96.5,515.334c13.945,292.944 17.111,380.777 18.445,1122.22c1.333,741.444 -1.278,829.5 -14.111,1122.22c-11.834,270.833 -56.723,417.944 -94.445,516.056c-50,129.722 -110.278,222.222 -207.278,319.777c-97,97.556 -189.388,157.667 -319.055,208.334c-97.778,38.166 -244.833,83.722 -515.333,96.611c-292.945,13.778 -380.723,16.666 -1122.5,18.278c-741.778,1.611 -829.278,-1.389 -1122.22,-14.056m2264.45,-3747.83c0.305,182.65 150.682,332.777 333.333,332.777c182.861,-0 333.333,-150.472 333.333,-333.334c-0,-182.861 -150.472,-333.333 -333.333,-333.333c-0.222,0 -0.444,0 -0.667,0.001c-182.819,0.365 -332.971,151.069 -332.666,333.889m-2572.78,1487.39c1.556,787.777 641.333,1424.94 1428.94,1423.44c787.612,-1.5 1425.22,-641.222 1423.72,-1429c-1.5,-787.778 -641.445,-1425.11 -1429.17,-1423.56c-787.722,1.556 -1425,641.445 -1423.5,1429.11m500.333,-1c-0.001,-0.611 -0.001,-1.221 -0.001,-1.832c-0,-507.958 417.986,-925.944 925.944,-925.944c507.958,-0 925.944,417.986 925.944,925.944c0,507.265 -416.845,924.937 -924.109,925.943c-0.649,0.001 -1.297,0.002 -1.946,0.002c-507.247,-0 -924.889,-416.867 -925.832,-924.113" style="fill:#cfcfcf;fill-rule:nonzero;"/></svg>