<?xml version="1.0" encoding="UTF-8" standalone="no"?><!DOCTYPE svg PUBLIC "-//W3C//DTD SVG 1.1//EN" "http://www.w3.org/Graphics/SVG/1.1/DTD/svg11.dtd"><svg width="100%" height="100%" viewBox="0 0 1378 1134" version="1.1" xmlns="http://www.w3.org/2000/svg" xmlns:xlink="http://www.w3.org/1999/xlink" xml:space="preserve" xmlns:serif="http://www.serif.com/" style="fill-rule:evenodd;clip-rule:evenodd;stroke-linejoin:round;stroke-miterlimit:2;"><g id="Logo_1_"><path id="white_background" d="M1233.06,284.944c0.833,12.056 0.833,24.112 0.833,36.278c-0,370.722 -282.222,798.278 -798.278,798.278l0,-0.222c-152.444,0.222 -301.722,-43.445 -430.055,-125.778c22.166,2.667 44.444,4 66.777,4.056c126.334,0.111 249.056,-42.278 348.445,-120.334c-120.056,-2.278 -225.334,-80.555 -262.111,-194.833c42.055,8.111 85.389,6.444 126.666,-4.833c-130.889,-26.445 -225.055,-141.445 -225.055,-275l-0,-3.556c39,21.722 82.666,33.778 127.333,35.111c-123.278,-82.389 -161.278,-246.389 -86.833,-374.611c142.444,175.278 352.611,281.833 578.222,293.111c-22.611,-97.444 8.278,-199.555 81.167,-268.055c113,-106.223 290.722,-100.778 396.944,12.166c62.833,-12.389 123.056,-35.444 178.167,-68.111c-20.945,64.945 -64.778,120.111 -123.334,155.167c55.612,-6.556 109.945,-21.445 161.112,-44.167c-37.667,56.445 -85.112,105.611 -140,145.333Z" style="fill:#cfcfcf;fill-rule:nonzero;"/></g></svg>